<svg width="18" height="20" viewBox="0 0 18 20" fill="none" xmlns="http://www.w3.org/2000/svg">
<path d="M1.725 5.80008L9 10.0084L16.275 5.80008M9 18.4001V10.0001M16.5 13.3334V6.66675C16.4997 6.37448 16.4225 6.08742 16.2763 5.83438C16.13 5.58134 15.9198 5.37122 15.6667 5.22508L9.83333 1.89175C9.57997 1.74547 9.29256 1.66846 9 1.66846C8.70744 1.66846 8.42003 1.74547 8.16667 1.89175L2.33333 5.22508C2.08022 5.37122 1.86998 5.58134 1.72372 5.83438C1.57745 6.08742 1.5003 6.37448 1.5 6.66675V13.3334C1.5003 13.6257 1.57745 13.9127 1.72372 14.1658C1.86998 14.4188 2.08022 14.6289 2.33333 14.7751L8.16667 18.1084C8.42003 18.2547 8.70744 18.3317 9 18.3317C9.29256 18.3317 9.57997 18.2547 9.83333 18.1084L15.6667 14.7751C15.9198 14.6289 16.13 14.4188 16.2763 14.1658C16.4225 13.9127 16.4997 13.6257 16.5 13.3334Z" stroke="#000716" stroke-width="1.8" stroke-linecap="round" stroke-linejoin="round"/>
</svg>